#!OML:ASF F:\VICON\USERDATA\INSTALL\rory3\rory3.ASF
:FULLY-SPECIFIED
:DEGREES
278
root -0.0588544 15.9387 11.4666 -0.223525 0.531207 3.53672
lowerback 11.999 1.17006 -5.92948
upperback -4.63407 0.615116 0.375519
thorax -11.9337 0.764099 3.6257
lowerneck -10.3992 -6.002 -4.17488
upperneck 19.9864 -8.19199 3.01639
head 8.20517 -3.91733 0.847473
rclavicle -1.26725e-015 -6.55989e-015
rhumerus -41.1447 -11.2502 -76.2711
rradius 20.4441
rwrist 7.91735
rhand -10.4526 19.8112
rfingers 7.12502
rthumb 15.5478 -9.58382
lclavicle -1.26725e-015 -6.55989e-015
lhumerus -36.7153 11.3332 81.4025
lradius 17.5408
lwrist -5.78116
lhand -4.39164 19.4454
lfingers 7.12502
lthumb 21.3778 48.2861
rfemur -1.42683 0.149361 16.9219
rtibia 53.9486
rfoot 16.6826 -1.49938
rtoes -13.3435
lfemur -23.5388 -14.5489 -26.8552
ltibia 31.8795
lfoot -4.79641 7.81744
ltoes 26.8002
279
root -0.0277839 15.9518 11.6036 -0.312887 0.317189 4.06452
lowerback 12.0815 1.23918 -6.37263
upperback -4.61031 0.613608 0.249084
thorax -11.9665 0.791466 3.73725
lowerneck -10.3215 -5.99986 -4.28396
upperneck 19.9158 -8.18437 3.08944
head 8.17533 -3.91663 0.893122
rclavicle -2.97183e-014 4.37326e-015
rhumerus -41.6977 -11.4757 -75.9919
rradius 19.8699
rwrist 8.34725
rhand -10.153 19.6569
rfingers 7.12502
rthumb 15.8363 -9.71545
lclavicle -2.97183e-014 4.37326e-015
lhumerus -36.3329 11.3987 81.4021
lradius 17.4014
lwrist -5.96969
lhand -4.39871 19.5869
lfingers 7.12502
lthumb 21.371 48.4284
rfemur -3.3915 0.0914027 16.0431
rtibia 56.8906
rfoot 19.9686 -2.86637
rtoes -10.6451
lfemur -22.3803 -14.1141 -27.7515
ltibia 31.278
lfoot -5.20902 7.59848
ltoes 26.5024
280
root -0.00385793 15.9698 11.7364 -0.386361 -0.0198374 4.4591
lowerback 12.2556 1.32962 -6.80342
upperback -4.62874 0.642087 0.202245
thorax -12.1082 0.84077 3.92206
lowerneck -10.2306 -5.93771 -4.35648
upperneck 19.8682 -8.09152 3.11415
head 8.14346 -3.87755 0.926447
rclavicle 4.82053e-015 -3.57812e-015
rhumerus -42.1766 -11.8451 -75.5738
rradius 19.1494
rwrist 9.19198
rhand -9.93918 18.993
rfingers 7.12502
rthumb 16.0422 -10.3629
lclavicle 4.82053e-015 -3.57812e-015
lhumerus -36.0725 10.9575 81.6753
lradius 17.4517
lwrist -5.51023
lhand -4.39862 19.6417
lfingers 7.12502
lthumb 21.3711 48.4831
rfemur -5.41733 0.204533 15.4386
rtibia 59.7242
rfoot 23.1747 -5.07104
rtoes -8.90092
lfemur -21.3623 -13.4882 -28.4289
ltibia 30.5825
lfoot -5.27968 7.39751
ltoes 25.615
281
root 0.0164613 15.9993 11.8659 -0.368617 -0.303003 4.68087
lowerback 12.4006 1.40318 -7.06772
upperback -4.72297 0.675767 0.166823
thorax -12.3165 0.884951 4.02342
lowerneck -10.015 -5.86929 -4.31605
upperneck 19.799 -8.00327 3.0835
head 8.07456 -3.83978 0.927001
rclavicle 8.52289e-015 3.97569e-016
rhumerus -42.8 -12.0161 -75.2696
rradius 18.445
rwrist 9.83219
rhand -9.77054 19.0268
rfingers 7.12502
rthumb 16.2046 -10.3159
lclavicle 8.52289e-015 3.97569e-016
lhumerus -35.9719 10.723 81.7174
lradius 17.5144
lwrist -5.45873
lhand -4.41293 19.2876
lfingers 7.12502
lthumb 21.3574 48.1306
rfemur -7.5235 0.34647 15.1287
rtibia 62.3953
rfoot 25.6965 -8.10015
rtoes -4.33346
lfemur -20.4227 -12.823 -28.8706
ltibia 29.8497
lfoot -5.27142 7.06602
ltoes 24.4523
282
root 0.0386329 16.0176 11.9946 -0.435603 -0.446187 5.04137
lowerback 12.6098 1.44223 -7.39193
upperback -4.76594 0.641731 0.0822096
thorax -12.4975 0.897614 4.11961
lowerneck -10.1187 -5.79177 -4.27095
upperneck 19.8934 -7.88428 2.99083
head 8.11412 -3.78669 0.897866
rclavicle 2.14687e-014 -7.95139e-016
rhumerus -43.5222 -11.9463 -75.1476
rradius 18.1391
rwrist 10.0957
rhand -9.49074 19.5475
rfingers 7.12502
rthumb 16.474 -9.77304
lclavicle 2.14687e-014 -7.95139e-016
lhumerus -35.8251 10.5835 81.7329
lradius 17.6932
lwrist -5.43262
lhand -4.28308 19.2035
lfingers 7.12502
lthumb 21.4821 48.0323
rfemur -9.40856 0.2398 14.6104
rtibia 64.8851
rfoot 27.4688 -12.1143
rtoes 4.61052
lfemur -19.3252 -12.394 -29.5133
ltibia 29.1455
lfoot -5.37691 6.85957
ltoes 23.9506
283
root 0.0593638 16.0311 12.1286 -0.491703 -0.645865 5.40469
lowerback 12.665 1.4891 -7.74954
upperback -4.78565 0.627218 0.0135825
thorax -12.5623 0.918653 4.24851
lowerneck -10.1361 -5.72782 -4.34068
upperneck 19.9498 -7.79078 3.02031
head 8.13663 -3.74412 0.927711
rclavicle -9.91439e-015 -1.31198e-014
rhumerus -44.1314 -12.005 -74.9348
rradius 17.6962
rwrist 10.5966
rhand -9.28317 19.9601
rfingers 7.12502
rthumb 16.6738 -9.34381
lclavicle -9.91439e-015 -1.31198e-014
lhumerus -35.6558 10.3459 81.8879
lradius 17.8472
lwrist -5.18236
lhand -4.47432 19.3232
lfingers 7.12502
lthumb 21.2984 48.1728
rfemur -11.2691 0.0983725 14.08
rtibia 67.1709
rfoot 28.0129 -14.8824
rtoes 8.45706
lfemur -18.3072 -12.182 -30.1414
ltibia 28.5678
lfoot -5.68432 6.90812
ltoes 23.3569
284
root 0.0759668 16.0436 12.2628 -0.556501 -0.853767 5.55441
lowerback 12.5701 1.48867 -7.92969
upperback -4.69341 0.604696 -0.0106023
thorax -12.4 0.912349 4.32989
lowerneck -10.1917 -5.70235 -4.32848
upperneck 19.8824 -7.75228 3.01759
head 8.12197 -3.72504 0.928038
rclavicle 2.6339e-014 -1.19271e-014
rhumerus -44.3477 -12.5712 -74.5195
rradius 16.9213
rwrist 11.7639
rhand -9.03669 19.9885
rfingers 7.12502
rthumb 16.9111 -9.29518
lclavicle 2.6339e-014 -1.19271e-014
lhumerus -35.3706 9.81948 82.16
lradius 18.2286
lwrist -4.51002
lhand -4.64146 19.8483
lfingers 7.12502
lthumb 21.1379 48.7161
rfemur -12.9985 -0.00689945 13.8628
rtibia 69.1776
rfoot 26.8196 -16.5523
rtoes 9.70729
lfemur -17.4095 -12.0023 -30.506
ltibia 28.1445
lfoot -6.06185 6.90339
ltoes 23.0561
285
root 0.0894897 16.0512 12.3915 -0.619163 -0.98607 5.48128
lowerback 12.5314 1.44702 -7.95252
upperback -4.58422 0.563807 0.0822174
thorax -12.2465 0.890644 4.45654
lowerneck -10.4729 -5.64782 -4.25766
upperneck 19.9384 -7.65071 2.87619
head 8.17874 -3.68078 0.87208
rclavicle 2.13694e-015 1.59028e-015
rhumerus -44.4686 -12.7671 -74.2898
rradius 16.3471
rwrist 12.5493
rhand -8.64468 19.6129
rfingers 7.12502
rthumb 17.2884 -9.63811
lclavicle 2.13694e-015 1.59028e-015
lhumerus -35.0188 9.39605 82.4584
lradius 18.5425
lwrist -3.96498
lhand -4.76651 19.9794
lfingers 7.12502
lthumb 21.0177 48.8605
rfemur -14.6002 -0.171768 13.9783
rtibia 70.8851
rfoot 25.4256 -17.8725
rtoes 13.107
lfemur -16.6435 -11.6827 -30.6222
ltibia 27.8981
lfoot -6.41097 6.69022
ltoes 22.454
286
root 0.101814 16.0558 12.5163 -0.754139 -0.971628 5.43969
lowerback 12.718 1.34881 -7.99406
upperback -4.51395 0.418175 0.155509
thorax -12.2592 0.827428 4.59573
lowerneck -10.4947 -5.50773 -4.05655
upperneck 19.838 -7.44823 2.68379
head 8.12513 -3.58912 0.798802
rclavicle 6.01324e-015 7.95139e-015
rhumerus -44.8232 -12.5867 -74.3148
rradius 16.1042
rwrist 12.8124
rhand -8.29663 19.5923
rfingers 7.12502
rthumb 17.6234 -9.62895
lclavicle 6.01324e-015 7.95139e-015
lhumerus -34.7264 9.01407 82.6596
lradius 18.6869
lwrist -3.81117
lhand -5.06219 19.4333
lfingers 7.12502
lthumb 20.7337 48.3457
rfemur -16.0447 -0.500922 14.0782
rtibia 72.3561
rfoot 24.6485 -17.0706
rtoes 12.967
lfemur -15.865 -11.4511 -30.7804
ltibia 27.7742
lfoot -6.78959 6.34894
ltoes 22.2502
287
root 0.118559 16.0594 12.6484 -0.887479 -1.08244 5.40418
lowerback 12.7194 1.30043 -7.94972
upperback -4.38263 0.369198 0.177826
thorax -12.1002 0.79177 4.60738
lowerneck -10.6213 -5.46449 -3.98927
upperneck 19.7896 -7.38552 2.6419
head 8.12511 -3.55716 0.777792
rclavicle -1.10325e-014 7.95139e-015
rhumerus -45.1877 -12.1221 -74.6955
rradius 16.173
rwrist 12.4947
rhand -7.91075 19.4043
rfingers 7.12502
rthumb 17.9947 -9.78323
lclavicle -1.10325e-014 7.95139e-015
lhumerus -34.3959 8.8536 82.7423
lradius 18.958
lwrist -3.74133
lhand -5.19071 19.1938
lfingers 7.12502
lthumb 20.6102 48.1196
rfemur -17.3626 -0.667072 14.1647
rtibia 73.5797
rfoot 22.8036 -14.6892
rtoes 9.25372
lfemur -15.1072 -11.2171 -30.9666
ltibia 27.7516
lfoot -7.36465 6.04613
ltoes 22.8083
288
root 0.136621 16.0583 12.7876 -1.05142 -1.26669 5.38289
lowerback 12.6165 1.28348 -7.93619
upperback -4.2715 0.368682 0.225663
thorax -11.9105 0.78199 4.65322
lowerneck -10.6412 -5.41258 -4.05609
upperneck 19.7902 -7.30923 2.68421
head 8.13049 -3.52166 0.810172
rclavicle -6.13748e-015 1.59028e-015
rhumerus -45.5764 -11.6615 -75.0078
rradius 16.2224
rwrist 12.2047
rhand -7.78002 18.9644
rfingers 7.12502
rthumb 18.1205 -10.2115
lclavicle -6.13748e-015 1.59028e-015
lhumerus -34.2296 8.48866 82.9507
lradius 19.306
lwrist -3.39726
lhand -5.27881 19.4611
lfingers 7.12502
lthumb 20.5255 48.3961
rfemur -18.4582 -0.712435 14.2353
rtibia 74.5822
rfoot 21.5126 -12.2435
rtoes 7.48165
lfemur -14.3173 -11.0731 -31.1812
ltibia 27.7361
lfoot -7.94533 6.03227
ltoes 23.2827
289
root 0.150439 16.0533 12.9148 -1.23654 -1.23546 5.34359
lowerback 12.8355 1.22094 -7.96043
upperback -4.29451 0.26924 0.317708
thorax -12.0557 0.748064 4.79272
lowerneck -10.382 -5.36253 -4.10921
upperneck 19.7325 -7.22713 2.63228
head 8.06145 -3.49577 0.818506
rclavicle 5.11871e-015 1.78906e-014
rhumerus -46.2461 -11.5864 -74.8697
rradius 16.2575
rwrist 12.5454
rhand -7.76496 19.1037
rfingers 7.12502
rthumb 18.135 -10.0709
lclavicle 5.11871e-015 1.78906e-014
lhumerus -34.2536 7.97596 83.2409
lradius 19.6481
lwrist -3.00795
lhand -5.33379 19.4124
lfingers 7.12502
lthumb 20.4727 48.3531
rfemur -19.5185 -0.913267 14.3836
rtibia 75.4452
rfoot 19.2822 -9.62864
rtoes 5.38092
lfemur -13.5203 -10.9531 -31.3488
ltibia 27.6258
lfoot -8.31002 6.05851
ltoes 23.0022
290
root 0.164884 16.0524 13.038 -1.34064 -1.03207 5.29908
lowerback 12.9622 1.06399 -7.96494
upperback -4.24246 0.0604555 0.428157
thorax -12.0414 0.653278 4.96745
lowerneck -10.4709 -5.31606 -4.24606
upperneck 19.8167 -7.14003 2.64717
head 8.10849 -3.46153 0.851467
rclavicle -1.12313e-014 -7.15625e-015
rhumerus -46.5982 -11.1797 -75.0138
rradius 16.268
rwrist 12.3046
rhand -7.69902 19.2701
rfingers 7.12502
rthumb 18.1984 -9.89857
lclavicle -1.12313e-014 -7.15625e-015
lhumerus -34.0515 7.78609 83.4533
lradius 19.9367
lwrist -2.82006
lhand -5.50791 19.3019
lfingers 7.12502
lthumb 20.3053 48.2605
rfemur -20.6892 -1.35585 14.5439
rtibia 76.1895
rfoot 16.9246 -6.25197
rtoes -2.07211
lfemur -12.744 -11.1278 -31.5118
ltibia 27.4555
lfoot -8.78351 6.08166
ltoes 22.7859
291
root 0.180611 16.0594 13.1667 -1.515 -0.845919 5.48748
lowerback 12.9825 0.928782 -8.20467
upperback -4.07049 -0.155952 0.44829
thorax -11.8268 0.555463 5.17572
lowerneck -10.5758 -5.20964 -4.15266
upperneck 19.7818 -6.99138 2.58581
head 8.10423 -3.38889 0.829626
rclavicle -1.10822e-014 1.59028e-015
rhumerus -46.8071 -10.6904 -75.3787
rradius 16.3762
rwrist 11.8365
rhand -7.62976 19.3682
rfingers 7.12502
rthumb 18.2651 -9.79427
lclavicle -1.10822e-014 1.59028e-015
lhumerus -33.7144 7.64008 83.6373
lradius 20.308
lwrist -2.52167
lhand -5.61467 19.3489
lfingers 7.12502
lthumb 20.2027 48.3184
rfemur -21.7815 -1.77217 14.414
rtibia 76.7676
rfoot 14.6466 -3.29057
rtoes -9.52795
lfemur -11.8732 -11.4017 -31.9513
ltibia 27.2408
lfoot -9.25626 6.06105
ltoes 22.5766
